<svg id="Layer_1" data-name="Layer 1" xmlns="http://www.w3.org/2000/svg" viewBox="0 0 267 299"><defs><style>.cls-1{fill:none;}.cls-2{fill:#fff;}.cls-3{isolation:isolate;}</style></defs><path class="cls-1" d="M23.87,86.1l109-63.29L242,86.1V212.66L132.92,276l-109-63.29Z"/><path class="cls-2" d="M132.92,253.53a19.06,19.06,0,0,1-9.4-2.26L49.82,208.5c-5.18-3-9.4-10.32-9.4-16.31V106.57c0-6,4.22-13.31,9.4-16.31l73.7-42.77c5.18-3,13.62-3,18.8,0L216,90.26c5.19,3,9.4,10.32,9.4,16.31v85.62c0,6-4.21,13.31-9.4,16.31l-73.7,42.77A19.06,19.06,0,0,1,132.92,253.53Zm0-205.31a16.18,16.18,0,0,0-7.9,1.86L51.32,92.85c-4.28,2.49-7.9,8.77-7.9,13.72v85.62c0,4.95,3.62,11.23,7.9,13.72L125,248.68c4.28,2.48,11.52,2.48,15.8,0l73.7-42.77c4.28-2.49,7.9-8.77,7.9-13.72V106.57c0-4.95-3.62-11.23-7.9-13.72l-73.7-42.77A16.18,16.18,0,0,0,132.92,48.22Z"/><path class="cls-2" d="M132.92,296.39a19.09,19.09,0,0,1-9.4-2.26L13.81,230.2c-5.18-3-9.39-10.34-9.39-16.32v-128c0-6,4.21-13.32,9.39-16.33L123.52,5.64c5.19-3,13.62-3,18.8,0L252,69.56c5.18,3,9.39,10.34,9.39,16.33v128c0,6-4.21,13.31-9.39,16.32L142.32,294.13A19.09,19.09,0,0,1,132.92,296.39Zm0-290A16.06,16.06,0,0,0,125,8.23L15.32,72.15c-4.28,2.5-7.9,8.79-7.9,13.74v128c0,5,3.62,11.24,7.9,13.73L125,291.53c4.28,2.49,11.5,2.49,15.78,0l109.71-63.92c4.28-2.49,7.9-8.78,7.9-13.73v-128c0-5-3.62-11.24-7.9-13.74L140.81,8.23A16.06,16.06,0,0,0,132.92,6.36Z"/><path class="cls-2" d="M242.42,113.88h-1V96.43c0-5.35-3.71-11.86-8.27-14.51L158.42,38.48l.5-.86,74.73,43.44c4.92,2.86,8.77,9.61,8.77,15.37Zm-218,0h-1V96.43c0-5.85,3.81-12.62,8.68-15.42L108,37.62l.5.86L32.59,81.88c-4.5,2.59-8.17,9.12-8.17,14.55Z"/><path class="cls-2" d="M108.3,262.46a.48.48,0,0,1-.26-.07L32.2,217.87c-4.84-2.85-8.78-9.81-8.78-15.51V182.88a.5.5,0,0,1,1,0v19.48c0,5.39,3.72,12,8.28,14.65l75.85,44.52a.49.49,0,0,1,.18.68A.51.51,0,0,1,108.3,262.46Zm50.2-.6a.5.5,0,0,1-.25-.93L225,221.77l9.44-5.55c3.87-2.27,7-8.48,7-13.86V180.88a.5.5,0,0,1,1,0v21.48c0,5.69-3.37,12.3-7.52,14.72l-9.43,5.55-6.46,3.8-60.26,35.36A.43.43,0,0,1,158.5,261.86Z"/><circle class="cls-2" cx="133.49" cy="272.49" r="3.26"/><circle class="cls-2" cx="133.49" cy="25.49" r="3.26"/><path class="cls-2" d="M111.52,151.9l-3.1-2.31-3.11,2.23-.76-.57,1.17-3.41-3.08-2,.28-.92h3.84l1.18-3.65h1l1.18,3.65h3.84l.28.92-3.08,2,1.17,3.52Zm-3.39-3.33h.59l2.12,1.58-.79-2.37.2-.58,2-1.32h-2.53l-.48-.34-.82-2.54-.82,2.54-.48.34h-2.54l2,1.34.2.57-.79,2.3Zm54.39,3.33-3.1-2.31-3.11,2.23-.76-.57,1.17-3.41-3.08-2,.28-.92h3.84l1.19-3.65h1l1.18,3.65h3.84l.28.92-3.08,2,1.17,3.52Zm-3.39-3.33h.59l2.12,1.58-.79-2.37.2-.58,2-1.32h-2.53l-.48-.34-.82-2.54-.82,2.54-.48.34h-2.54l2,1.34.2.57-.79,2.3Z"/><polygon class="cls-2" points="82.88 203.9 82 203.01 133.56 151.46 133.54 151.44 134.39 150.52 189.56 201.69 188.71 202.61 134.26 152.11 134.47 152.32 120.76 166.03 133.56 177.39 132.73 178.33 119.87 166.91 114.09 172.69 121.41 179.4 120.56 180.32 113.21 173.58 82.88 203.9"/><polygon class="cls-2" points="55.76 194.55 54.87 193.67 89.5 158.91 108.22 176.85 107.35 177.75 89.52 160.66 80.7 169.52 88.61 176.52 87.78 177.45 79.81 170.41 76.08 174.16 80.6 178.14 79.78 179.08 75.2 175.04 55.76 194.55"/><polygon class="cls-2" points="170.42 184 169.53 183.12 193.62 158.91 212.34 176.85 211.48 177.75 193.65 160.66 184.83 169.53 192.73 176.52 191.9 177.45 183.94 170.41 180.21 174.16 184.73 178.14 183.9 179.08 179.33 175.05 170.42 184"/><polygon class="cls-2" points="24.61 169.88 23.61 169.88 23.61 149.53 14.52 158.61 13.82 157.9 23.61 148.11 23.61 144.51 15.64 152.48 14.93 151.77 23.61 143.09 23.61 139.49 16.76 146.34 16.05 145.64 23.61 138.08 23.61 134.48 17.88 140.21 17.17 139.5 23.61 133.06 23.61 129.46 18.99 134.08 18.29 133.37 23.61 128.05 23.61 127.88 24.61 127.88 24.61 128.05 29.96 133.4 29.25 134.11 24.61 129.46 24.61 133.06 31.03 139.52 30.32 140.22 24.61 134.48 24.61 138.07 32.1 145.64 31.39 146.34 24.61 139.49 24.61 143.09 33.17 151.76 32.46 152.46 24.61 144.51 24.61 148.1 34.25 157.87 33.53 158.57 24.61 149.52 24.61 169.88"/><polygon class="cls-2" points="242.61 169.88 241.61 169.88 241.61 149.53 232.52 158.61 231.82 157.9 241.61 148.11 241.61 144.51 233.64 152.48 232.93 151.77 241.61 143.09 241.61 139.49 234.76 146.34 234.05 145.64 241.61 138.08 241.61 134.48 235.88 140.21 235.17 139.5 241.61 133.06 241.61 129.46 236.99 134.08 236.29 133.37 241.61 128.05 241.61 127.88 242.61 127.88 242.61 128.05 247.96 133.4 247.25 134.11 242.61 129.46 242.61 133.06 249.03 139.52 248.32 140.22 242.61 134.48 242.61 138.07 250.1 145.64 249.39 146.34 242.61 139.49 242.61 143.09 251.17 151.76 250.46 152.46 242.61 144.51 242.61 148.1 252.25 157.87 251.53 158.57 242.61 149.52 242.61 169.88"/><g class="cls-3"><path class="cls-2" d="M80.57,86.81h6l9.54,22.56H89.43l-1.63-4H79.16l-1.6,4H71ZM86,100.54l-2.5-6.37L81,100.54Z"/><path class="cls-2" d="M98.26,87h8.64c8,0,12.64,4.61,12.64,11.07v.07c0,6.46-4.7,11.26-12.76,11.26H98.26Zm8.74,16.9c3.71,0,6.18-2.05,6.18-5.67v-.06c0-3.58-2.47-5.66-6.18-5.66h-2.53v11.39Z"/><path class="cls-2" d="M128.89,86.81h6l9.54,22.56h-6.66l-1.63-4h-8.64l-1.6,4h-6.53Zm5.44,13.73-2.5-6.37-2.53,6.37Z"/><path class="cls-2" d="M146.58,87h6.56l5.35,8.68L163.83,87h6.56v22.4h-6.17V96.51l-5.73,8.77h-.13l-5.7-8.71v12.8h-6.08Z"/><path class="cls-2" d="M172.67,106l3.45-4.12a11.53,11.53,0,0,0,7.26,2.68c1.67,0,2.56-.57,2.56-1.53V103c0-.92-.73-1.44-3.77-2.14-4.77-1.09-8.45-2.43-8.45-7v-.06c0-4.16,3.3-7.17,8.67-7.17a14.06,14.06,0,0,1,9.22,3L188.5,94a11.2,11.2,0,0,0-6.27-2.21c-1.5,0-2.24.64-2.24,1.44v.06c0,1,.77,1.48,3.87,2.18,5.16,1.12,8.35,2.78,8.35,7v.06c0,4.58-3.61,7.3-9.05,7.3A15.6,15.6,0,0,1,172.67,106Z"/></g><g class="cls-3"><path class="cls-2" d="M115.49,74.47h1.31l2.13,3.31,2.13-3.31h1.31v7h-1.23v-5l-2.21,3.3h0l-2.19-3.28v5h-1.21Z"/><path class="cls-2" d="M123.86,78v0a3.66,3.66,0,0,1,7.32,0v0a3.66,3.66,0,0,1-7.32,0Zm6,0v0a2.4,2.4,0,0,0-2.38-2.49A2.37,2.37,0,0,0,125.15,78v0a2.4,2.4,0,0,0,2.38,2.49A2.37,2.37,0,0,0,129.89,78Z"/><path class="cls-2" d="M132.56,78.5v-4h1.23v4c0,1.3.67,2,1.77,2s1.76-.66,1.76-2v-4h1.23v4a2.8,2.8,0,0,1-3,3.14A2.76,2.76,0,0,1,132.56,78.5Z"/><path class="cls-2" d="M140.24,74.47h1.14l3.75,4.84V74.47h1.21v7h-1l-3.86-5v5h-1.21Z"/><path class="cls-2" d="M149.86,75.61h-2.22V74.47h5.68v1.14H151.1v5.86h-1.24Z"/></g><g class="cls-3"><path class="cls-2" d="M70.12,123.91v0a7.05,7.05,0,0,1,7.08-7.24,7.29,7.29,0,0,1,5.46,2.22L81.58,120a6.08,6.08,0,0,0-4.4-1.92,5.49,5.49,0,0,0-5.42,5.74v0a5.52,5.52,0,0,0,5.42,5.78,6.08,6.08,0,0,0,4.52-2l1,1a7.3,7.3,0,0,1-5.6,2.47A7,7,0,0,1,70.12,123.91Z"/><path class="cls-2" d="M85.5,116.87h1.58v6.22h8.08v-6.22h1.58v14H95.16v-6.3H87.08v6.3H85.5Z"/><path class="cls-2" d="M105.88,116.77h1.48l6.38,14.1H112l-1.64-3.7h-7.62l-1.66,3.7H99.5Zm3.9,9-3.18-7.14-3.2,7.14Z"/><path class="cls-2" d="M116.5,116.87h1.58v12.54H126v1.46H116.5Z"/><path class="cls-2" d="M128.88,116.87h1.58v12.54h7.88v1.46h-9.46Z"/><path class="cls-2" d="M141.26,116.87h10.12v1.44h-8.54v4.78h7.64v1.44h-7.64v4.9h8.64v1.44H141.26Z"/><path class="cls-2" d="M154.66,116.87h1.48L165,128.09V116.87h1.54v14h-1.26l-9-11.48v11.48h-1.54Z"/><path class="cls-2" d="M169.84,123.91v0a7,7,0,0,1,7-7.24,7.38,7.38,0,0,1,5.22,1.86l-1,1.2a6,6,0,0,0-4.26-1.6,5.47,5.47,0,0,0-5.32,5.74v0c0,3.34,2.14,5.82,5.54,5.82a6.59,6.59,0,0,0,4-1.4v-3.48H176.8v-1.42h5.78V129a8.49,8.49,0,0,1-5.62,2.15A6.87,6.87,0,0,1,169.84,123.91Z"/><path class="cls-2" d="M186.14,116.87h10.12v1.44h-8.54v4.78h7.64v1.44h-7.64v4.9h8.64v1.44H186.14Z"/></g></svg>